<?xml version="1.0" encoding="UTF-8"?>
<svg xmlns="http://www.w3.org/2000/svg" xmlns:xlink="http://www.w3.org/1999/xlink" width="1076" height="684" viewBox="0 0 1076 684">
  <defs>
    <clipPath id="clippath">
      <rect x="545.231907" y="567.737124" width="78.654" height="68.112511" fill="none"></rect>
    </clipPath>
    <clipPath id="clippath-1">
      <rect x="545.231907" y="567.737124" width="78.654" height="68.112511" fill="none"></rect>
    </clipPath>
  </defs>
  <g id="Layer_6" data-name="Layer 6">
    <path d="m785.420161,107.195015v223.199951c0,6.240112-5.059937,11.310059-11.309937,11.310059h-403.310059c-6.25,0-11.310059-5.069946-11.310059-11.310059V107.195015h425.930054Z" fill="#d2e7b4" stroke="#233212" stroke-miterlimit="10" stroke-width="2"></path>
    <path d="m785.420161,98.495063v8.699951h-425.930054v-8.699951c0-6.25,5.060059-11.310059,11.310059-11.310059h403.310059c6.25,0,11.309937,5.060059,11.309937,11.310059Z" fill="#2f4e0e" stroke="#233212" stroke-miterlimit="10" stroke-width="2"></path>
    <circle cx="371.213333" cy="97.19001" r="4.353702" fill="#fff"></circle>
    <circle cx="382.768928" cy="97.19001" r="4.353702" fill="#fff"></circle>
    <circle cx="394.324523" cy="97.19001" r="4.353702" fill="#fff"></circle>
    <polyline points="405.883267 528.94605 328.703267 528.94605 328.703267 519.94605 407.833267 519.94605" fill="#2f4e0e"></polyline>
    <polyline points="422.683267 451.28605 345.833267 451.28605 345.833267 442.28605 424.633267 442.28605" fill="#2f4e0e"></polyline>
    <polyline points="438.663267 377.42605 361.653267 377.42605 361.653267 368.42605 440.603267 368.42605" fill="#2f4e0e"></polyline>
    <polyline points="451.173267 319.57605 372.493267 319.57605 372.493267 310.57605 453.123267 310.57605" fill="#2f4e0e"></polyline>
    <polyline points="462.393267 267.73605 383.693267 267.73605 383.693267 258.73605 464.333267 258.73605" fill="#2f4e0e"></polyline>
    <polyline points="388.943267 607.23605 311.753267 607.23605 311.753267 598.23605 390.893267 598.23605" fill="#2f4e0e"></polyline>
    <g>
      <line x1="388.653267" y1="267.73605" x2="379.383267" y2="310.57605" fill="#2f4e0e"></line>
      <polyline points="315.213267 607.23605 309.183267 635.11605 299.973267 635.11605 387.963267 228.33605 397.173267 228.33605 390.593267 258.73605" fill="#2f4e0e"></polyline>
      <line x1="348.953267" y1="451.28605" x2="317.163267" y2="598.23605" fill="#2f4e0e"></line>
      <line x1="364.933267" y1="377.42605" x2="350.903267" y2="442.28605" fill="#2f4e0e"></line>
      <line x1="377.443267" y1="319.57605" x2="366.873267" y2="368.42605" fill="#2f4e0e"></line>
    </g>
    <polygon points="480.113326 228.33605 392.123336 635.115835 382.913131 635.115835 470.913131 228.33605 480.113326 228.33605" fill="#2f4e0e"></polygon>
    <polyline points="405.883267 528.94605 328.703267 528.94605 328.703267 519.94605 407.833267 519.94605" fill="none" stroke="#233212" stroke-linejoin="round" stroke-width="2.396571"></polyline>
    <polyline points="422.683267 451.28605 345.833267 451.28605 345.833267 442.28605 424.633267 442.28605" fill="none" stroke="#233212" stroke-linejoin="round" stroke-width="2.396571"></polyline>
    <polyline points="438.663267 377.42605 361.653267 377.42605 361.653267 368.42605 440.603267 368.42605" fill="none" stroke="#233212" stroke-linejoin="round" stroke-width="2.396571"></polyline>
    <polyline points="451.173267 319.57605 372.493267 319.57605 372.493267 310.57605 453.123267 310.57605" fill="none" stroke="#233212" stroke-linejoin="round" stroke-width="2.396571"></polyline>
    <polyline points="462.393267 267.73605 383.693267 267.73605 383.693267 258.73605 464.333267 258.73605" fill="none" stroke="#233212" stroke-linejoin="round" stroke-width="2.396571"></polyline>
    <polyline points="388.943267 607.23605 311.753267 607.23605 311.753267 598.23605 390.893267 598.23605" fill="none" stroke="#233212" stroke-linejoin="round" stroke-width="2.396571"></polyline>
    <g>
      <line x1="388.653267" y1="267.73605" x2="379.383267" y2="310.57605" fill="none" stroke="#233212" stroke-linejoin="round" stroke-width="2.396571"></line>
      <polyline points="315.213267 607.23605 309.183267 635.11605 299.973267 635.11605 387.963267 228.33605 397.173267 228.33605 390.593267 258.73605" fill="none" stroke="#233212" stroke-linejoin="round" stroke-width="2.396571"></polyline>
      <line x1="348.953267" y1="451.28605" x2="317.163267" y2="598.23605" fill="none" stroke="#233212" stroke-linejoin="round" stroke-width="2.396571"></line>
      <line x1="364.933267" y1="377.42605" x2="350.903267" y2="442.28605" fill="none" stroke="#233212" stroke-linejoin="round" stroke-width="2.396571"></line>
      <line x1="377.443267" y1="319.57605" x2="366.873267" y2="368.42605" fill="none" stroke="#233212" stroke-linejoin="round" stroke-width="2.396571"></line>
    </g>
    <path d="m316.295793,579.764941l-1.172593,18.190067h46.719279l-2.143574-5.316179-6.202345-6.057784s-4.165257-.075485-8.353177-1.099174-6.660544-5.989871-6.660544-5.989871l-22.187047.272941Z" fill="#5e9c1c"></path>
    <path d="m316.295793,579.764941l-1.172593,18.190067h46.719279s-1.711838-11.738321-15.161998-12.227417c-7.530539-.791601-8.197642-6.235591-8.197642-6.235591" fill="none" stroke="#233212" stroke-miterlimit="10" stroke-width="2"></path>
    <line x1="315.1232" y1="593.140243" x2="359.842608" y2="593.620662" fill="none" stroke="#233212" stroke-miterlimit="10" stroke-width="2"></line>
    <path d="m349.272274,501.706373l-1.172593,18.190067h46.719279l-2.143574-5.316179-6.202345-6.057784s-4.165257-.075485-8.353177-1.099174-6.660544-5.989871-6.660544-5.989871l-22.187047.272941Z" fill="#5e9c1c"></path>
    <path d="m349.272274,501.706373l-1.172593,18.190067h46.719279s-1.711838-11.738321-15.161998-12.227417c-7.530539-.791601-8.197642-6.235591-8.197642-6.235591" fill="none" stroke="#233212" stroke-miterlimit="10" stroke-width="2"></path>
    <line x1="348.099681" y1="515.081675" x2="392.819089" y2="515.562094" fill="none" stroke="#233212" stroke-miterlimit="10" stroke-width="2"></line>
    <path d="m288.199872,404.104413l3.059471-16.307033,5.098091-15.846814,5.192546-11.787438,8.644789-14.015943,5.711794-2.92216,19.42436-6.384026,42.990021-17.784905,20.65298-44.343162,15.199805,4.0427-5.679792,22.964298-6.535338,18.317089-6.03358,10.267795-7.751016,6.67295-16.659755,10.113054-23.202425,9.693458,4.977468,7.866323,4.741985,9.901599,3.819176,9.935251,43.233249-19.28142,11.91406,17.771207-21.497215,15.278458-19.839388,9.131411-10.53218,2.015555-10.732962-1.160561-13.112086-6.290435-2.974929-2.16556-3.403022,12.414823-11.034042-1.999512s-10.430825-.509232-14.599505-.306177-21.072558-5.790824-21.072558-5.790824Z" fill="#5e9c1c"></path>
    <path d="m288.199872,404.104413l-1.706509,11.816875.331585,10.27991,2.012071,7.500633,4.464829,6.39793,11.997129,61.333671,6.830907,78.058568h33.705065l-4.877542-70.973551-4.230855-36.797448-2.941394-15.837941-1.606409-8.146353,26.425213-.7298-14.100005,54.426525,32.067715.943359,6.126328-37.779024,3.154543-19.453012,1.21956-10.734194-1.546466-5.60769-4.982484-6.672922-8.305725-3.968456-48.365495-7.960077s-13.460022-.29879-19.347403-1.394117-16.324659-4.702884-16.324659-4.702884Z" fill="#d2e7b4"></path>
    <polygon points="406.398807 366.08004 414.248361 358.487796 420.923315 356.706306 423.469055 357.595629 431.978538 366.658388 430.212649 368.150037 427.173932 368.795316 423.579892 374.054011 420.11943 377.066464 414.729437 379.593769 406.398807 366.08004" fill="#ee9e55"></polygon>
    <polygon points="401.248128 275.258741 401.466743 263.987794 404.450996 258.644048 411.073107 253.586827 422.223423 254.233211 424.677979 257.643566 423.370097 258.911297 420.182107 262.210316 418.523894 267.855296 422.934034 267.73605 422.16088 269.227193 418.65587 272.973926 414.17373 278.755633 401.248128 275.258741" fill="#ee9e55"></polygon>
    <polygon points="480.113326 228.33605 392.123336 635.115835 382.913131 635.115835 470.913131 228.33605 480.113326 228.33605" fill="none" stroke="#233212" stroke-linejoin="round" stroke-width="2.396571"></polygon>
    <rect x="479.21751" y="264.520416" width="202.182262" height="37.909427" rx="11.704454" ry="11.704454" fill="#233212"></rect>
    <rect x="475.950456" y="261.077578" width="202.182262" height="37.909427" rx="11.704454" ry="11.704454" fill="#fff"></rect>
    <g>
      <path d="m496.800268,287.693497v-14.957031h5.901367c1.699219,0,3.017578.443359,3.954102,1.329102.9375.886719,1.40625,2.072266,1.40625,3.556641,0,1.022461-.227539,1.896484-.682617,2.62207s-1.109375,1.270508-1.960938,1.635742l3.176758,5.813477h-3.491211l-2.833008-5.301758h-2.308594v5.301758h-3.162109Zm3.162109-7.84375h2.147461c1.796875,0,2.695312-.742188,2.695312-2.227539,0-1.533203-.90332-2.300781-2.709961-2.300781h-2.132812v4.52832Z" fill="#5e9c1c"></path>
      <path d="m510.296362,287.693497v-14.957031h10.079102v2.607422h-6.916992v3.563477h6.398438v2.607422h-6.398438v3.571289h6.945312v2.607422h-10.107422Z" fill="#5e9c1c"></path>
      <path d="m532.812963,277.571427c-.200195-.701172-.568359-1.25-1.106445-1.647461-.538086-.396484-1.213867-.594727-2.026367-.594727-1.144531,0-2.070312.421875-2.779297,1.266602-.708008.844727-1.0625,2.046875-1.0625,3.604492,0,1.5625.347656,2.770508,1.043945,3.62207.696289.852539,1.638672,1.27832,2.827148,1.27832,1.051758,0,1.87793-.273438,2.479492-.821289.600586-.547852.911133-1.28418.930664-2.208984h-3.212891v-2.380859h6.258789v1.883789c0,1.30957-.27832,2.438477-.833008,3.384766-.554688.947266-1.318359,1.673828-2.289062,2.180664-.97168.505859-2.087891.758789-3.348633.758789-1.402344,0-2.634766-.30957-3.695312-.930664-1.061523-.621094-1.888672-1.504883-2.479492-2.651367-.591797-1.146484-.887695-2.508789-.887695-4.085938,0-1.616211.308594-2.999023.927734-4.148438.618164-1.148438,1.455078-2.027344,2.511719-2.636719,1.056641-.608398,2.242188-.912109,3.556641-.912109,1.129883,0,2.152344.213867,3.067383.642578.916016.428711,1.665039,1.021484,2.25,1.77832.583984.756836.944336,1.629883,1.081055,2.618164h-3.213867Z" fill="#5e9c1c"></path>
      <path d="m540.648901,287.693497h-3.388672l5.163086-14.957031h4.075195l5.15625,14.957031h-3.388672l-1.110352-3.410156h-5.396484l-1.110352,3.410156Zm1.913086-5.878906h3.797852l-1.839844-5.660156h-.117188l-1.84082,5.660156Z" fill="#5e9c1c"></path>
      <path d="m556.613745,272.736466v14.957031h-3.162109v-14.957031h3.162109Z" fill="#5e9c1c"></path>
      <path d="m571.730932,272.736466v14.957031h-2.731445l-6.506836-9.414062h-.110352v9.414062h-3.162109v-14.957031h2.775391l6.456055,9.40625h.131836v-9.40625h3.147461Z" fill="#5e9c1c"></path>
      <path d="m581.685034,287.693497h-3.388672l5.163086-14.957031h4.075195l5.15625,14.957031h-3.388672l-1.110352-3.410156h-5.396484l-1.110352,3.410156Zm1.913086-5.878906h3.797852l-1.839844-5.660156h-.117188l-1.84082,5.660156Z" fill="#5e9c1c"></path>
      <path d="m606.983862,277.972794h-3.199219c-.121094-.822266-.47168-1.46875-1.051758-1.938477-.579102-.470703-1.301758-.705078-2.168945-.705078-1.158203,0-2.086914.424805-2.786133,1.274414-.698242.849609-1.047852,2.053711-1.047852,3.611328,0,1.59668.351562,2.810547,1.055664,3.640625.703125.830078,1.62207,1.245117,2.756836,1.245117.841797,0,1.555664-.219727,2.139648-.661133.583984-.44043.952148-1.05957,1.102539-1.858398l3.199219.014648c-.112305.915039-.438477,1.777344-.978516,2.584961-.541016.808594-1.274414,1.463867-2.202148,1.964844-.927734.501953-2.03125.751953-3.3125.751953-1.333984,0-2.525391-.301758-3.574219-.905273-1.049805-.603516-1.876953-1.477539-2.483398-2.62207-.606445-1.143555-.90918-2.529297-.90918-4.155273,0-1.630859.306641-3.018555.919922-4.163086.613281-1.143555,1.446289-2.016602,2.498047-2.618164,1.051758-.600586,2.234375-.901367,3.548828-.901367,1.154297,0,2.195312.212891,3.123047.638672.926758.425781,1.686523,1.043945,2.27832,1.855469.591797.810547.955078,1.792969,1.091797,2.946289Z" fill="#5e9c1c"></path>
      <path d="m622.451635,277.972794h-3.199219c-.121094-.822266-.47168-1.46875-1.051758-1.938477-.579102-.470703-1.301758-.705078-2.168945-.705078-1.158203,0-2.086914.424805-2.786133,1.274414-.698242.849609-1.047852,2.053711-1.047852,3.611328,0,1.59668.351562,2.810547,1.055664,3.640625.703125.830078,1.62207,1.245117,2.756836,1.245117.841797,0,1.555664-.219727,2.139648-.661133.583984-.44043.952148-1.05957,1.102539-1.858398l3.199219.014648c-.112305.915039-.438477,1.777344-.978516,2.584961-.541016.808594-1.274414,1.463867-2.202148,1.964844-.927734.501953-2.03125.751953-3.3125.751953-1.333984,0-2.525391-.301758-3.574219-.905273-1.049805-.603516-1.876953-1.477539-2.483398-2.62207-.606445-1.143555-.90918-2.529297-.90918-4.155273,0-1.630859.306641-3.018555.919922-4.163086.613281-1.143555,1.446289-2.016602,2.498047-2.618164,1.051758-.600586,2.234375-.901367,3.548828-.901367,1.154297,0,2.195312.212891,3.123047.638672.926758.425781,1.686523,1.043945,2.27832,1.855469.591797.810547.955078,1.792969,1.091797,2.946289Z" fill="#5e9c1c"></path>
      <path d="m624.72312,287.693497v-14.957031h10.079102v2.607422h-6.916992v3.563477h6.398438v2.607422h-6.398438v3.571289h6.945312v2.607422h-10.107422Z" fill="#5e9c1c"></path>
      <path d="m645.435034,277.038224c-.058594-.588867-.310547-1.046875-.755859-1.373047s-1.045898-.489258-1.800781-.489258c-.773438,0-1.368164.158203-1.78125.474609-.414062.316406-.621094.71582-.621094,1.197266-.009766.536133.219727.941406.69043,1.216797.469727.274414,1.02832.487305,1.675781.638672l1.34375.321289c.866211.194336,1.636719.477539,2.311523.847656.673828.369141,1.205078.845703,1.591797,1.427734.387695.581055.581055,1.289062.581055,2.121094-.004883,1.368164-.517578,2.458008-1.537109,3.268555-1.020508.810547-2.443359,1.21582-4.269531,1.21582-1.81543,0-3.264648-.414062-4.344727-1.241211-1.081055-.828125-1.641602-2.049805-1.679688-3.666992h3.05957c.053711.75.349609,1.313477.887695,1.691406.538086.376953,1.217773.56543,2.041016.56543.803711,0,1.444336-.169922,1.924805-.510742.479492-.34082.72168-.78418.726562-1.329102-.004883-.506836-.226562-.896484-.665039-1.168945s-1.063477-.505859-1.876953-.701172l-1.628906-.40918c-1.260742-.301758-2.255859-.78125-2.986328-1.438477s-1.09375-1.536133-1.088867-2.636719c-.004883-.905273.237305-1.697266.727539-2.376953.489258-.678711,1.162109-1.207031,2.018555-1.584961.857422-.376953,1.831055-.56543,2.921875-.56543,1.109375,0,2.080078.189453,2.910156.569336s1.476562.908203,1.938477,1.584961c.462891.676758.701172,1.459961.71582,2.351562h-3.030273Z" fill="#5e9c1c"></path>
      <path d="m658.90183,277.038224c-.058594-.588867-.310547-1.046875-.755859-1.373047s-1.045898-.489258-1.800781-.489258c-.773438,0-1.368164.158203-1.78125.474609-.414062.316406-.621094.71582-.621094,1.197266-.009766.536133.219727.941406.69043,1.216797.469727.274414,1.02832.487305,1.675781.638672l1.34375.321289c.866211.194336,1.636719.477539,2.311523.847656.673828.369141,1.205078.845703,1.591797,1.427734.387695.581055.581055,1.289062.581055,2.121094-.004883,1.368164-.517578,2.458008-1.537109,3.268555-1.020508.810547-2.443359,1.21582-4.269531,1.21582-1.81543,0-3.264648-.414062-4.344727-1.241211-1.081055-.828125-1.641602-2.049805-1.679688-3.666992h3.05957c.053711.75.349609,1.313477.887695,1.691406.538086.376953,1.217773.56543,2.041016.56543.803711,0,1.444336-.169922,1.924805-.510742.479492-.34082.72168-.78418.726562-1.329102-.004883-.506836-.226562-.896484-.665039-1.168945s-1.063477-.505859-1.876953-.701172l-1.628906-.40918c-1.260742-.301758-2.255859-.78125-2.986328-1.438477s-1.09375-1.536133-1.088867-2.636719c-.004883-.905273.237305-1.697266.727539-2.376953.489258-.678711,1.162109-1.207031,2.018555-1.584961.857422-.376953,1.831055-.56543,2.921875-.56543,1.109375,0,2.080078.189453,2.910156.569336s1.476562.908203,1.938477,1.584961c.462891.676758.701172,1.459961.71582,2.351562h-3.030273Z" fill="#5e9c1c"></path>
    </g>
  </g>
  <g id="Layer_9" data-name="Layer 9">
    <path d="m676.90045,489.943755s-3.060438-1.234562-6.615215-.078486c-.21639.069053-.452473.14439-.662578.233137-1.707097.696519-3.479909,1.934257-5.056004,4.128019-.372569.530778-.720879,1.205575-1.025236,2.018107,2.145992-7.405046,3.775882-15.815825,2.850584-22.587569-.07202-.497266-.151083-.949019-.256206-1.414022-1.041192-5.369042-3.914396-9.481455-9.708665-10.92751,0,0-.781868-.140682-1.945558-.051156-.169959.010971-.359651.028105-.568916.051487-2.295957.277519-5.726446,1.415501-8.005877,5.481381-1.349645-11.362098-4.286077-26.813537-10.600692-35.52905-.340366-.455031-.668163-.870676-1.015534-1.280074-3.164561-3.802711-7.146981-5.957014-12.093178-5.28905,0,0-.753043.153642-1.784873.656373-.19057.08238-.374697.184536-.578637.293014-1.552145.842099-3.505397,2.397542-4.611355,5.113419-2.209728-3.392003-4.820462-7.089491-7.657226-10.476558-.135138-.151903-.244337-.290516-.379633-.442501-4.124293-4.840335-8.707851-9.013995-13.271346-10.679347-.201344-.087377-.396321-.15522-.585172-.20345-.682762-.237273-1.37973-.383481-2.06409-.490181-4.537617-.633112-7.681746.587081-9.645008,1.907161-.164553.095909-.322822.211512-.461316.320672-1.509992,1.110603-2.189804,2.172878-2.189804,2.172878-1.504506,3.233245-1.611837,6.497483-.673399,9.709826.036829.183407.093312.360409.149835.537532,1.928303,5.974689,7.339831,11.7918,13.688119,16.876261.174564.139454.349089.278787.549631.43165,3.853428,3.040804,8.056574,5.818379,11.977555,8.187315-8.055055-1.873468-11.664526,4.546079-11.664526,4.546079-.040146.077776-.080373.15571-.100825.227202-.074088.175404-.154461.331114-.189283.493987-2.413769,5.886353-.097889,11.173715,4.441366,15.7517.257746.264538.529059.50318.806498.761434,5.169221,4.853805,12.778806,8.863891,19.780989,11.853718-6.339275-.70849-9.538697,3.802601-10.085422,4.670777-.059921.084219-.086657.136017-.086657.136017-.053636.103912-.100907.22736-.134888.324868-2.676709,6.013527-.471587,11.292967,4.022716,15.7985.231926.251211.503081.489771.780679.748106,3.89791,3.655353,9.305223,6.742239,14.746147,9.254885-4.154645.566997-6.426503,3.026316-7.560097,4.840444-.11976.168279-.219707.330236-.3002.485984-.46795.843038-.665116,1.447904-.665116,1.447904-1.598057,6.948237,2.61502,11.998797,9.242954,15.650132.285562.147298.551311.30092.836754.448256,13.910802,7.180335,37.312034,8.708939,41.848402,8.930565.267587.022972.463443.025569.594016.027168.110917.008003.176282.008843.176282.008843,0,0,17.93248-29.806622,12.992348-46.374559-.087066-.340836-.187503-.655573-.313918-.98372l-.006284-.019694c-1.198781-3.281025-3.378314-5.967255-6.922139-7.697873Z" fill="#5e9c1c"></path>
    <path d="m624.342196,518.508592c-1.681058-.309022-3.337977-.473986-4.924844-.487844-.11976.168279-.219707.330236-.3002.485984,1.658517.034392,3.380681.200234,5.127066.509976,7.278102,1.341031,12.946287,4.973414,14.139192,8.711597.238581.747637.30088,1.48643.167361,2.222747-.610881,3.316565-5.033404,5.42156-10.85578,5.653716.285562.147298.551311.30092.836754.448256,1.73889-.121319,3.336357-.414234,4.733163-.859973,3.187243-1.017092,5.372012-2.798177,5.79398-5.144022.877198-4.723871-5.737756-9.896828-14.716692-11.540438Z" fill="#fafafa"></path>
    <path d="m614.094979,488.502946c-2.223646-.786186-4.404938-1.304064-6.445527-1.585018-.059921.084219-.086657.136017-.086657.136017-.053636.103912-.100907.22736-.134888.324868,2.040709.280916,4.267672.805919,6.491199,1.592143,8.354844,2.948493,14.071819,8.364477,12.763659,12.077013-.630126,1.76196-2.760788,2.897035-6.023739,3.201311-2.700478.233015-5.915689-.128254-9.208402-1.071967.231926.251211.503081.489771.780679.748106,3.040216.764032,5.949571,1.049576,8.47993.82745,1.052773-.097529,2.015201-.27459,2.841492-.538271,1.888785-.602737,3.142919-1.63156,3.617623-2.997002,1.396656-3.979202-4.460302-9.697436-13.075369-12.71465Z" fill="#fafafa"></path>
    <path d="m600.403613,455.109165c-2.561765-.895013-5.114316-1.489577-7.50831-1.722853-.074088.175404-.154461.331114-.189283.493987,2.3743.23956,4.966239.821555,7.528124,1.71653,6.670699,2.358633,11.649329,6.276027,12.729228,9.660085.269965.845985.292157,1.662674.034312,2.416966-1.207373,3.485214-8.153682,4.271059-15.850296,1.958118.257746.264538.529059.50318.806498.761434,4.666999,1.242135,8.9957,1.356569,11.907473.427383,1.849398-.590168,3.135876-1.586046,3.62399-2.977467,1.396536-3.979163-4.460302-9.697436-13.081735-12.734185Z" fill="#fafafa"></path>
    <path d="m634.290552,429.988018c.429483,1.141869.812454,2.341978,1.156076,3.554777,2.559008,9.241836,1.543624,17.60841-2.264491,18.650171-3.801672,1.061536-8.960761-5.594806-11.519687-14.8368-1.179108-4.306101-1.640633-8.537802-1.249949-12.000825-.19057.08238-.374697.184536-.578637.293014-.305625,3.457579.163024,7.643608,1.330442,11.845077.149835.537532.299669,1.075063.462874,1.586497,2.768781,8.676477,7.864572,14.659308,11.692343,13.611143l.137735-.043953c3.974147-1.268204,5.09676-9.842325,2.487515-19.241589-.212641-.734348-.41896-1.448882-.638687-2.137438-.340366-.455031-.668163-.870676-1.015534-1.280074Z" fill="#fafafa"></path>
    <path d="m656.06387,487.553338c-1.837647-.32415-3.260881-2.406255-4.000784-5.812015-.791101-3.497785-.740352-7.958057.089456-12.558442.533475-2.879978,1.325575-5.560663,2.329028-7.918607-.169959.010971-.359651.028105-.568916.051487-.990044,2.331966-1.749003,4.980509-2.268229,7.769143-.850342,4.672035-.882314,9.191147-.092053,12.754298.110447.550101.253997,1.067939.410957,1.559799.866418,2.715077,2.25614,4.352592,4.002564,4.662454.59946.112227,1.168256.060779,1.778157-.133849,3.403753-1.086183,6.918852-6.781906,8.647951-14.270642-.07202-.497266-.151083-.949019-.256206-1.414022-1.796511,9.179358-6.253565,15.999442-10.071924,15.310397Z" fill="#fafafa"></path>
    <path d="m683.140528,500.395561c-2.773947,9.51297-8.457459,16.225884-12.641321,15.003033-4.183862-1.222851-5.338919-9.937306-2.558726-19.430702.642204-2.199267,1.432994-4.272489,2.344754-6.102623-.21639.069053-.452473.14439-.662578.233137-.832266,1.739669-1.562376,3.663466-2.163557,5.719711-1.782963,6.096808-1.948924,11.894335-.730919,15.711173.734596,2.301991,1.95508,3.88515,3.627415,4.370416.839351.252401,1.715001.211394,2.620067-.077425,3.954453-1.261919,8.329906-7.318989,10.665978-15.28311.184597-.644253.355784-1.262528.501152-1.894131-.087066-.340836-.187503-.655573-.313918-.98372-.188072.905354-.421657,1.803666-.688346,2.73424Z" fill="#fafafa"></path>
    <path d="m670.974162,545.010757c-.130572-.001598-.326428-.004195-.594016-.027168-17.678782-37.194033-43.401798-85.738222-69.758855-115.95738-8.592307-9.874638-15.151109-15.347205-19.462575-18.328639.138494-.10916.296762-.224763.461316-.320672,4.31775,3.001128,10.798776,8.433549,19.314027,18.202715,14.880634,17.08106,38.982073,51.033145,70.040102,116.431145Z" fill="#fafafa"></path>
    <rect x="429.887449" y="540.219893" width="152.634485" height="95.652626" fill="#d2e7b4"></rect>
    <line x1="561.99435" y1="540.219893" x2="561.99435" y2="635.872519" fill="none" stroke="#fafafa" stroke-miterlimit="10" stroke-width="2.828268"></line>
    <line x1="521.55658" y1="540.219893" x2="521.55658" y2="635.872519" fill="none" stroke="#fafafa" stroke-miterlimit="10" stroke-width="2.828268"></line>
    <line x1="472.444388" y1="540.219893" x2="472.444388" y2="635.872519" fill="none" stroke="#fafafa" stroke-miterlimit="10" stroke-width="2.828268"></line>
    <line x1="429.887449" y1="606.010716" x2="583.722175" y2="606.010716" fill="none" stroke="#fafafa" stroke-miterlimit="10" stroke-width="2.828268"></line>
    <line x1="429.887449" y1="573.450041" x2="583.722175" y2="573.450041" fill="none" stroke="#fafafa" stroke-miterlimit="10" stroke-width="2.828268"></line>
    <rect x="598.259145" y="518.866614" width="90.573443" height="116.98302" fill="#d2e7b4"></rect>
    <rect x="545.231907" y="567.737124" width="78.654" height="68.112511" fill="#5e9c1c"></rect>
    <line x1="651.436451" y1="518.866614" x2="651.436451" y2="635.849634" fill="none" stroke="#233212" stroke-miterlimit="10" stroke-width="1.798647"></line>
    <polyline points="623.88591 635.849634 688.832588 635.849634 688.832588 518.866614 598.259145 518.866614 598.259145 567.737136" fill="none" stroke="#233212" stroke-miterlimit="10" stroke-width="1.798647"></polyline>
    <rect x="545.231907" y="567.737124" width="78.654" height="68.112511" transform="translate(1169.117814 1203.586758) rotate(-180)" fill="none" stroke="#233212" stroke-miterlimit="10" stroke-width="1.798647"></rect>
    <g clip-path="url(#clippath)" fill="none">
      <path d="m557.715028,625.921066c-.005484-.017948-.010969-.035892-.016487-.053873.005471.017934.010975.035905.016487.053873Z" fill="#d2e7b4"></path>
    </g>
    <g clip-path="url(#clippath-1)" fill="none">
      <path d="m557.715028,625.921066c-.005484-.017948-.010969-.035892-.016487-.053873.005471.017934.010975.035905.016487.053873Z" fill="#d2e7b4"></path>
    </g>
    <rect x="545.231907" y="567.737124" width="78.654" height="68.112511" fill="none" stroke="#233212" stroke-miterlimit="10" stroke-width="1.798647"></rect>
    <g id="_29NnQ7.tif" data-name="29NnQ7.tif">
      <g>
        <path d="m590.697367,576.860292c.606723.217378,1.209821.445573,1.82081.650213,2.327207.779459,4.704752,1.370745,7.11427,1.824448,1.688827.317999,3.388466.579545,5.085454.852788.748433.12051,1.501602.212822,2.254158.305498.163986.020195.188582.091469.19938.236571.050567.679767.117553,1.358293.174474,2.037615.022991.274356.040835.549399.051226.824499.019685.52104.037112,1.042256.046957,1.563561.032899,1.742202.077744,3.484399.086193,5.226751.00445.91853-.045746,1.837954-.092179,2.755917-.043673.863379-.107859,1.72592-.176163,2.587789-.051418.648757-.118752,1.296385-.18816,1.943536-.049784.464193-.114697.926764-.172862,1.390062-.188729,1.064419-.357823,2.132769-.570157,3.192457-.484252,2.416696-1.175984,4.776058-2.216437,7.011803-.889022,1.910367-1.964367,3.718961-3.207396,5.430199-1.754185,2.414922-3.734855,4.624421-5.860502,6.713252-1.140926,1.121165-2.333883,2.180064-3.542707,3.227169-1.378921,1.194436-2.813444,2.314019-4.277431,3.396236-1.093439.808299-2.233335,1.55364-3.348002,2.333507-.126553.088529-.21203.042924-.310013-.024388-.728548-.500423-1.468687-.984963-2.182633-1.505426-1.198094-.873414-2.393522-1.751712-3.563143-2.662531-.836331-.65128-1.623495-1.365316-2.441594-2.040455-2.003034-1.652994-3.803308-3.516779-5.577103-5.404084-.713942-.759624-1.344472-1.599999-1.986327-2.424364-.646358-.830155-1.259642-1.686062-1.88742-2.530686-.44301-.708823-.90351-1.407423-1.325055-2.128787-.686072-1.17403-1.260058-2.403832-1.777071-3.662139-.570436-1.388321-.974787-2.826258-1.341302-4.27727-.026229-.103841-.058899-.206051-.088573-.309022-.476441-1.856587-.715181-3.755816-.997064-5.646411-.118802-.796806-.176481-1.603379-.243387-2.407056-.048905-.587457-.054501-1.178484-.101872-1.766109-.188466-2.337906-.139363-4.680147-.126949-7.021143.004591-.865742.078828-1.731164.123207-2.596634.03182-.620543.06481-1.241043.101023-1.861344.028145-.482114.054213-.964684.102698-1.444881.00656-.064973.133981-.160832.213102-.169105,2.133076-.223051,4.251821-.547042,6.355743-.955326,1.673792-.324812,3.350563-.655071,4.998302-1.088303,2.281377-.599832,4.528528-1.325392,6.691742-2.279511.899025-.39653,1.80787-.789046,2.652863-1.284645.83062-.487168,1.591525-1.095116,2.370001-1.66777.17137-.126062.276534-.128079.438332-.002775.545727.422642,1.095096.841285,1.655782,1.243748.955689.685996,2.04023,1.132566,3.100957,1.618052.641722.293711,1.309021.531549,1.964827.794492Zm-25.435856,23.674362c.081099.413938.160382.82824.243616,1.241748.32898,1.634374.718659,3.254094,1.349119,4.801183.358416.879526.784509,1.73147,1.18012,2.595827.038368.075105.072947.15244.115656.22499,1.255354,2.132603,2.731348,4.106373,4.369692,5.955089,1.34178,1.514072,2.807903,2.907189,4.338313,4.231.662289.572883,1.307534,1.16833,1.998607,1.704429,1.116659.866267,2.260928,1.697242,3.401609,2.532086.427496.312872.873705.600966,1.320922.885349.078918.050184.230797.071187.304876.028725.332723-.190723.659078-.39596.970294-.620167.947305-.682478,1.890062-1.371394,2.828105-2.066561,1.347138-.99834,2.631871-2.072368,3.854824-3.21965,2.172623-2.038197,4.227069-4.178181,5.969316-6.610749,1.00308-1.400521,1.893656-2.858873,2.593304-4.426661.647377-1.450643,1.216205-2.934695,1.541284-4.499718.165394-.796246.347919-1.588937.522699-2.383234.055445-.386991.114799-.773468.165425-1.161087.078312-.599654.162395-1.198914.222283-1.800508.061373-.616498.101709-1.235259.142104-1.853627.064828-.992299.159998-1.984572.173634-2.977798.019916-1.450717-.007604-2.902571-.040604-4.353357-.022637-.994711-.085206-1.988626-.137869-2.982476-.017365-.327749-.052916-.655088-.097009-.980329-.00737-.054351-.095502-.128539-.156095-.139501-.247945-.044852-.500023-.06626-.749956-.100808-1.093189-.151109-2.19083-.276626-3.277931-.463385-1.13428-.194867-2.264006-.424659-3.385596-.683122-1.961551-.452026-3.904885-.972967-5.779008-1.721608-.527828-.210846-1.053275-.427643-1.579816-.64171-.588119-.300758-1.195343-.569889-1.759364-.910546-.655983-.396204-1.289265-.8351-1.900004-1.29819-.198293-.150354-.287425-.167239-.466041-.01003-.253104.222772-.522679.43093-.804055.616812-1.742951,1.151414-3.642099,1.986647-5.607891,2.66004-1.20479.412708-2.440957.741869-3.677026,1.052954-1.228268.309119-2.466424.593062-3.714106.807333-1.528436.262486-3.071063.442641-4.608182.653836-.173726.023871-.273109.076235-.286364.277453-.063567.964928-.153811,1.928215-.208949,2.893547-.039357.689052-.058778,1.380654-.051014,2.070713.020818,1.850412.040553,3.701285.102067,5.550599.031349.942462.132366,1.884123.237646,2.822132.086355.769405.225575,1.532876.341362,2.298977Z" fill="#d2e7b4"></path>
        <path d="m586.456457,603.673294c.092996.501741.189537,1.002854.278084,1.505379.109617.622079.208268,1.246102.320008,1.867784.071083.395484.15734.788242.236762,1.18225-.004585.01494-.009141.029849-.013698.04476-1.305878.002002-2.611756.00372-3.917636.006103-.98326.001794-1.966522.004917-2.949781.006404-.286754.000431-.302933-.028829-.2526-.304437.222864-1.220339.440875-2.441569.660641-3.662468.106801-.572827.212207-1.145925.320833-1.718408.092689-.488514.179314-.978528.288917-1.463294.040361-.178517.008381-.277836-.146692-.381155-.583103-.388497-1.139152-.805066-1.536619-1.404638-.435184-.656465-.658577-1.376981-.766696-2.14943-.339223-2.423604,1.356138-4.571388,3.502165-5.188721.487948-.140361.991238-.130995,1.500788-.122547.586148.009719,1.125229.147035,1.649232.372984,1.491118.642967,2.464239,1.742409,2.790687,3.342697.309566,1.517497.013515,2.907665-1.007656,4.119486-.323148.383479-.699099.689017-1.111866.9577-.260724.169711-.372839.343371-.288937.694126.174248.728432.271956,1.475158.402767,2.214072.005075.028657.027145.054304.041296.081354Z" fill="#d2e7b4"></path>
        <path d="m587.277612,608.273467c.004557-.014912.009113-.02982.013698-.04476-.004545.0149-.009119.029832-.013698.04476Z" fill="#d2e7b4"></path>
      </g>
    </g>
    <path d="m315.1232,446.787919s10.523592,39.142156,10.523592,54.645512,5.084461,73.638479,5.084461,73.638479" fill="none" stroke="#fff" stroke-miterlimit="10" stroke-width="2.042888"></path>
    <path d="m306.850421,409.85605s-2.499188,16.762852,8.272779,17.425844l51.560578,5.215368c3.979071.402484,6.741727,4.151226,5.948005,8.071047l-10.599988,54.403413" fill="none" stroke="#fff" stroke-miterlimit="10" stroke-width="2.042888"></path>
    <path d="m353.780126,306.265927c-.548556,4.275489-4.45856,7.296358-8.72504,6.748958-4.149462-.532386-7.115815-4.224871-6.787301-8.354811,0,0-1.863616,12.935035-16.636108,13.785066-5.743788.330506-9.731728-5.942037-8.999541-11.648769.579739-4.518535,3.971169-7.990132,8.191603-8.866588l.010194-.008074,22.376261-5.326719,1.463212-.351926c.671277-.097036,1.367942-.108169,2.079059-.016931,4.275489.548556,7.296343,4.45867,6.747788,8.734159-.056587.441042-.148057.86845-.273254,1.273214.519399,1.228606.735575,2.610406.553127,4.032419Z" fill="#233212"></path>
    <path d="m327.225732,329.860094l7.013877,1.703505c4.929546,1.19727,9.754088-2.319148,10.123397-7.378544l.240993-3.301508,3.24535-.83871-2.144201-5.819304.921177-7.179729c-5.205303-.667853-8.80397-5.325874-8.80397-5.325874.265506,14.994796-13.136881,15.647061-13.136881,15.647061,0,0-4.353215-7.309102-8.744366-2.946403-4.391152,4.362699,3.61001,8.835659,3.61001,8.835659l-5.533776,19.447351s4.080489-1.415385,10.104812-1.402808c2.738331.005717,9.565724,2.626256,9.565724,2.626256l.551731-12.363447-7.013877-1.703505Z" fill="#ee9e55"></path>
    <path d="m333.687878,343.927046l.551731-12.363447" fill="none" stroke="#233212" stroke-miterlimit="10" stroke-width="2.042888"></path>
    <path d="m327.225732,329.860094l7.013877,1.703505c4.929546,1.19727,9.754088-2.319148,10.123397-7.378544l.240993-3.301508,2.227806-.575742c.544721-.140775.8487-.721209.65418-1.24913l-1.780836-4.833142.921177-7.179729c-5.205303-.667853-8.80397-5.325874-8.80397-5.325874.265506,14.994796-13.136881,15.647061-13.136881,15.647061,0,0-4.353215-7.309102-8.744366-2.946403-4.391152,4.362699,3.61001,8.835659,3.61001,8.835659l-6.311717,20.919875" fill="none" stroke="#233212" stroke-miterlimit="10" stroke-width="2.042888"></path>
    <circle cx="340.188349" cy="313.656459" r="1.422569" fill="#233212"></circle>
    <path d="m332.629036,325.084161l7.53528-2.136135s.470858,4.041449-2.755734,4.8123c-3.226592.770851-4.779546-2.676165-4.779546-2.676165Z" fill="#fff"></path>
    <path d="m288.199872,404.104413s-7.395555,29.107452,7.638652,37.835919,62.765439,5.066574,62.765439,5.066574l-14.300831,53.536444,32.268542,1.83344,10.261094-63.276749c1.623049-10.008802-5.18085-19.436288-15.19131-21.049084l-47.872853-7.712848s-20.901215,1.466752-35.568733-6.233696Z" fill="none" stroke="#233212" stroke-miterlimit="10" stroke-width="2.042888"></path>
    <path d="m341.283928,401.304454s21.707612-10.224782,31.883407,6.77545" fill="none" stroke="#d2e7b4" stroke-miterlimit="10" stroke-width="2.042888"></path>
    <path d="m293.301848,440.09976l12.181654,62.27703,6.646382,77.115209h33.705065s-5.209153-111.627726-14.654498-131.774126" fill="none" stroke="#233212" stroke-miterlimit="10" stroke-width="2.042888"></path>
    <path d="m288.199872,404.104413s2.160354-27.117522,19.548551-55.063972c1.451086-2.332197,3.604599-4.174504,6.173294-5.147439,5.718218-2.165867,16.508175-4.187344,27.00935,5.05369,15.274436,13.441504,20.467745,35.742181,20.467745,35.742181l43.684888-19.482844,11.91406,17.344423s-33.60376,30.548873-58.959324,26.577519-38.470037-39.102557-38.470037-39.102557" fill="none" stroke="#233212" stroke-miterlimit="10" stroke-width="2.042888"></path>
    <line x1="338.733044" y1="399.085949" x2="335.330924" y2="412.200927" fill="none" stroke="#233212" stroke-miterlimit="10" stroke-width="2.042888"></line>
    <path d="m386.027826,338.42411s-1.677974-23.888377,19.534965-27.543562" fill="none" stroke="#d2e7b4" stroke-miterlimit="10" stroke-width="2.042888"></path>
    <path d="m348.204993,356.862938s37.021939-14.02602,47.714044-26.551058,18.329324-51.933083,18.329324-51.933083l-15.274436-3.665865-20.773233,44.601354-44.221249,18.079248" fill="none" stroke="#233212" stroke-miterlimit="10" stroke-width="2.042888"></path>
    <path d="m406.398807,367.120555s7.09811-9.210272,12.077047-10.257617c3.51919-.74028,5.999149,1.383833,5.999149,1.383833l7.327563,8.083129c.480083.529586.111002,1.377933-.603733,1.387702l-.558384.007632c-2.623263.035856-4.943889,1.650968-5.938292,4.078716-1.329568,3.246022-4.110745,7.348613-9.735373,7.789819" fill="none" stroke="#233212" stroke-miterlimit="10" stroke-width="2.042888"></path>
    <path d="m419.20902,361.920041s2.839211-2.978472,6.237779-2.601268" fill="none" stroke="#233212" stroke-miterlimit="10" stroke-width="2.042888"></path>
    <path d="m421.905984,365.206029s2.839211-2.978472,6.237779-2.601268" fill="none" stroke="#233212" stroke-miterlimit="10" stroke-width="2.042888"></path>
    <path d="m401.248128,274.712932v-8.637926c0-3.046459,1.359639-5.931364,3.704183-7.87662,1.503468-1.247419,3.127765-2.534708,4.168871-3.184832.820361-.512278,1.766346-.780343,2.733518-.780343h10.368722s2.342985,1.56199,2.454556,4.128117c0,0-5.76049,3.238333-5.76049,9.374722h4.016546s-.375899,2.786486-2.942026,4.236905-5.743647,6.405842-5.743647,6.405842" fill="none" stroke="#233212" stroke-miterlimit="10" stroke-width="2.042888"></path>
    <path d="m414.248361,254.233211s-3.899985,3.021091-4.060821,5.111961" fill="none" stroke="#233212" stroke-miterlimit="10" stroke-width="2.042888"></path>
    <path d="m419.636068,254.233211s-3.899985,3.021091-4.060821,5.111961" fill="none" stroke="#233212" stroke-miterlimit="10" stroke-width="2.042888"></path>
    <line x1="311.748927" y1="575.07191" x2="345.834949" y2="575.07191" fill="none" stroke="#233212" stroke-miterlimit="10" stroke-width="2.042888"></line>
    <line x1="345.834949" y1="494.808855" x2="377.462337" y2="496.884368" fill="none" stroke="#233212" stroke-miterlimit="10" stroke-width="2.042888"></line>
  </g>
  <g id="clickerhand">
    <path d="m594.997884,168.926617l-20.024166-34.668121c-1.122797-1.94938-3.92998-1.94938-5.052777,0l-20.008556,34.668121c-1.122797,1.94938.280985,4.366687,2.526579,4.366687h40.032342c2.245594,0,3.649376-2.417307,2.526579-4.366687Zm-21.536839-4.148524h-2.011821v-2.354866h2.011821v2.354866Zm0-5.208499h-2.011821v-12.257868h2.011821v12.257868Z" fill="#ee9e55"></path>
    <g>
      <path d="m390.956518,201.194474v-2.115234h12.601562v2.115234h-5.081055v14.167969h-2.448242v-14.167969h-5.072266Z" fill="#233212"></path>
      <path d="m408.518041,208.110489v7.251953h-2.376953v-16.283203h2.344727v6.058594h.152344c.285156-.662109.722656-1.185547,1.310547-1.570312.588867-.384766,1.357422-.576172,2.306641-.576172,1.255859,0,2.266602.386719,3.033203,1.160156.765625.773438,1.148438,1.921875,1.148438,3.443359v7.767578h-2.376953v-7.482422c0-.894531-.230469-1.591797-.691406-2.085938-.461914-.496094-1.103516-.744141-1.924805-.744141-.848633,0-1.547852.265625-2.098633.798828s-.827148,1.287109-.827148,2.261719Z" fill="#233212"></path>
      <path d="m420.817846,201.264786c-.414062,0-.767578-.138672-1.061523-.416016-.293945-.279297-.441406-.611328-.441406-.998047,0-.392578.147461-.728516.441406-1.005859.293945-.279297.647461-.417969,1.061523-.417969.408203,0,.759766.138672,1.056641.417969.296875.277344.445312.613281.445312,1.005859,0,.386719-.148438.71875-.445312.998047-.296875.277344-.648438.416016-1.056641.416016Zm-1.201172,14.097656v-12.212891h2.376953v12.212891h-2.376953Z" fill="#233212"></path>
      <path d="m434.341284,206.131974l-2.154297.380859c-.138672-.408203-.393555-.783203-.767578-1.125-.373047-.341797-.931641-.511719-1.673828-.511719-.672852,0-1.236328.148438-1.689453.449219-.453125.298828-.676758.683594-.671875,1.15625-.004883.412109.144531.742188.449219.990234.304688.246094.793945.449219,1.466797.607422l1.94043.445312c2.225586.513672,3.338867,1.617188,3.338867,3.306641,0,.738281-.210938,1.388672-.631836,1.957031-.420898.566406-1.006836,1.011719-1.756836,1.335938-.75.322266-1.618164.484375-2.603516.484375-1.373047,0-2.488281-.292969-3.347656-.878906-.858398-.585938-1.388672-1.417969-1.589844-2.5l2.296875-.349609c.287109,1.208984,1.162109,1.8125,2.625,1.8125.77832,0,1.401367-.164062,1.867188-.488281.466797-.326172.700195-.726562.700195-1.197266,0-.779297-.575195-1.296875-1.725586-1.550781l-2.066406-.453125c-1.145508-.253906-1.988281-.667969-2.529297-1.240234-.540039-.572266-.810547-1.291016-.810547-2.154297,0-.720703.201172-1.353516.604492-1.896484s.958984-.964844,1.668945-1.267578c.710938-.302734,1.524414-.453125,2.441406-.453125,1.320312,0,2.358398.285156,3.117188.857422.757812.574219,1.257812,1.333984,1.501953,2.283203Z" fill="#233212"></path>
      <path d="m446.672338,215.631974c-.774414,0-1.47168-.142578-2.094727-.429688-.623047-.285156-1.117188-.705078-1.482422-1.259766-.366211-.552734-.548828-1.230469-.548828-2.03125,0-.693359.132812-1.263672.401367-1.708984.267578-.445312.625-.798828,1.073242-1.058594.447266-.257812.950195-.453125,1.505859-.583984.556641-.128906,1.125-.228516,1.702148-.296875.731445-.085938,1.323242-.15625,1.776367-.210938.453125-.056641.785156-.148438.994141-.275391s.314453-.333984.314453-.619141v-.056641c0-.693359-.195312-1.232422-.583984-1.613281-.390625-.380859-.96875-.572266-1.738281-.572266-.799805,0-1.429688.173828-1.887695.525391-.458008.349609-.775391.742188-.950195,1.175781l-2.234375-.509766c.398438-1.111328,1.061523-1.910156,1.992188-2.392578.929688-.482422,1.946289-.722656,3.048828-.722656.488281,0,1.003906.056641,1.550781.169922.544922.115234,1.060547.324219,1.545898.628906s.879883.734375,1.18457,1.291016.457031,1.28125.457031,2.171875v8.109375h-2.321289v-1.669922h-.095703c-.227539.455078-.633789.892578-1.21582,1.3125-.583984.417969-1.380859.626953-2.393555.626953Zm.516602-1.908203c.662109,0,1.226562-.128906,1.693359-.388672s.823242-.601562,1.070312-1.021484c.246094-.421875.369141-.873047.369141-1.355469v-1.574219c-.111328.111328-.355469.208984-.731445.292969-.375977.085938-.774414.15625-1.192383.214844-.418945.058594-.757812.105469-1.017578.142578-.689453.091797-1.279297.273438-1.769531.544922-.490234.273438-.735352.728516-.735352,1.363281,0,.589844.217773,1.033203.651367,1.332031.435547.300781.989258.449219,1.662109.449219Z" fill="#233212"></path>
      <path d="m461.007299,215.608536c-1.181641,0-2.198242-.269531-3.048828-.806641-.851562-.539062-1.503906-1.28125-1.959961-2.230469s-.68457-2.035156-.68457-3.259766c0-1.246094.234375-2.341797.700195-3.291016s1.125-1.691406,1.975586-2.226562c.851562-.535156,1.848633-.802734,2.994141-.802734.926758,0,1.753906.169922,2.480469.511719.725586.341797,1.3125.820312,1.760742,1.435547s.713867,1.333984.798828,2.154297h-2.313477c-.126953-.572266-.417969-1.064453-.871094-1.478516s-1.058594-.619141-1.816406-.619141c-.991211,0-1.790039.382812-2.396484,1.148438-.607422.765625-.910156,1.802734-.910156,3.111328,0,1.332031.298828,2.386719.898438,3.169922.597656.78125,1.401367,1.171875,2.408203,1.171875.678711,0,1.258789-.185547,1.741211-.556641s.797852-.884766.946289-1.542969h2.313477c-.084961.791016-.341797,1.496094-.770508,2.115234-.429688.621094-1.003906,1.107422-1.722656,1.462891-.717773.355469-1.558594.533203-2.523438.533203Z" fill="#233212"></path>
      <path d="m473.72019,215.608536c-1.181641,0-2.198242-.269531-3.048828-.806641-.851562-.539062-1.503906-1.28125-1.959961-2.230469s-.68457-2.035156-.68457-3.259766c0-1.246094.234375-2.341797.700195-3.291016s1.125-1.691406,1.975586-2.226562c.851562-.535156,1.848633-.802734,2.994141-.802734.926758,0,1.753906.169922,2.480469.511719.725586.341797,1.3125.820312,1.760742,1.435547s.713867,1.333984.798828,2.154297h-2.313477c-.126953-.572266-.417969-1.064453-.871094-1.478516s-1.058594-.619141-1.816406-.619141c-.991211,0-1.790039.382812-2.396484,1.148438-.607422.765625-.910156,1.802734-.910156,3.111328,0,1.332031.298828,2.386719.898438,3.169922.597656.78125,1.401367,1.171875,2.408203,1.171875.678711,0,1.258789-.185547,1.741211-.556641s.797852-.884766.946289-1.542969h2.313477c-.084961.791016-.341797,1.496094-.770508,2.115234-.429688.621094-1.003906,1.107422-1.722656,1.462891-.717773.355469-1.558594.533203-2.523438.533203Z" fill="#233212"></path>
      <path d="m486.43308,215.608536c-1.144531,0-2.144531-.261719-2.998047-.787109s-1.515625-1.259766-1.987305-2.207031c-.47168-.945312-.708008-2.046875-.708008-3.302734,0-1.267578.236328-2.375.708008-3.324219.47168-.947266,1.133789-1.685547,1.987305-2.208984.853516-.525391,1.853516-.787109,2.998047-.787109,1.150391,0,2.150391.261719,3.000977.787109.850586.523438,1.512695,1.261719,1.983398,2.208984.472656.949219.708008,2.056641.708008,3.324219,0,1.255859-.235352,2.357422-.708008,3.302734-.470703.947266-1.132812,1.681641-1.983398,2.207031s-1.850586.787109-3.000977.787109Zm.007812-1.996094c.748047,0,1.363281-.195312,1.848633-.587891s.844727-.916016,1.081055-1.570312.353516-1.371094.353516-2.150391-.117188-1.498047-.353516-2.154297c-.236328-.658203-.595703-1.183594-1.081055-1.578125s-1.100586-.59375-1.848633-.59375-1.365234.199219-1.852539.59375-.850586.919922-1.088867,1.578125c-.238281.65625-.357422,1.375-.357422,2.154297s.119141,1.496094.357422,2.150391.601562,1.177734,1.088867,1.570312,1.104492.587891,1.852539.587891Z" fill="#233212"></path>
      <path d="m502.509252,210.297989v-7.148438h2.384766v12.212891h-2.337891v-2.115234h-.126953c-.28125.652344-.730469,1.193359-1.347656,1.625-.617188.433594-1.384766.648438-2.301758.648438-1.170898,0-2.131836-.388672-2.881836-1.164062-.75-.777344-1.125-1.923828-1.125-3.439453v-7.767578h2.376953v7.482422c0,.832031.230469,1.494141.691406,1.986328.460938.494141,1.060547.740234,1.796875.740234.445312,0,.889648-.111328,1.332031-.333984s.810547-.560547,1.105469-1.013672c.293945-.453125.438477-1.023438.433594-1.712891Z" fill="#233212"></path>
      <path d="m510.458471,208.110489v7.251953h-2.376953v-12.212891h2.282227v1.988281h.151367c.28125-.646484.72168-1.166016,1.323242-1.558594s1.360352-.587891,2.27832-.587891c1.25,0,2.255859.388672,3.017578,1.167969.759766.779297,1.140625,1.923828,1.140625,3.435547v7.767578h-2.376953v-7.482422c0-.884766-.231445-1.578125-.692383-2.078125-.460938-.501953-1.094727-.751953-1.899414-.751953-.828125,0-1.508789.265625-2.043945.798828-.536133.533203-.803711,1.287109-.803711,2.261719Z" fill="#233212"></path>
      <path d="m527.15476,203.149552v1.908203h-2.504883v6.71875c0,.689453.148438,1.132812.441406,1.332031.294922.197266.634766.296875,1.021484.296875.191406,0,.358398-.011719.501953-.039062.142578-.027344.253906-.046875.333984-.064453l.428711,1.964844c-.137695.052734-.334961.107422-.592773.162109-.255859.056641-.573242.085938-.949219.091797-.625.011719-1.209961-.099609-1.753906-.333984-.542969-.232422-.980469-.59375-1.310547-1.080078-.332031-.488281-.498047-1.101562-.498047-1.837891v-7.210938h-1.789062v-1.908203h1.789062v-2.925781h2.376953v2.925781h2.504883Z" fill="#233212"></path>
      <path d="m538.086401,208.110489v7.251953h-2.376953v-16.283203h2.344727v6.058594h.152344c.285156-.662109.722656-1.185547,1.310547-1.570312.588867-.384766,1.357422-.576172,2.306641-.576172,1.255859,0,2.266602.386719,3.033203,1.160156.765625.773438,1.148438,1.921875,1.148438,3.443359v7.767578h-2.376953v-7.482422c0-.894531-.230469-1.591797-.691406-2.085938-.461914-.496094-1.103516-.744141-1.924805-.744141-.848633,0-1.547852.265625-2.098633.798828s-.827148,1.287109-.827148,2.261719Z" fill="#233212"></path>
      <path d="m552.738745,215.631974c-.774414,0-1.47168-.142578-2.094727-.429688-.623047-.285156-1.117188-.705078-1.482422-1.259766-.366211-.552734-.548828-1.230469-.548828-2.03125,0-.693359.132812-1.263672.401367-1.708984.267578-.445312.625-.798828,1.073242-1.058594.447266-.257812.950195-.453125,1.505859-.583984.556641-.128906,1.125-.228516,1.702148-.296875.731445-.085938,1.323242-.15625,1.776367-.210938.453125-.056641.785156-.148438.994141-.275391s.314453-.333984.314453-.619141v-.056641c0-.693359-.195312-1.232422-.583984-1.613281-.390625-.380859-.96875-.572266-1.738281-.572266-.799805,0-1.429688.173828-1.887695.525391-.458008.349609-.775391.742188-.950195,1.175781l-2.234375-.509766c.398438-1.111328,1.061523-1.910156,1.992188-2.392578.929688-.482422,1.946289-.722656,3.048828-.722656.488281,0,1.003906.056641,1.550781.169922.544922.115234,1.060547.324219,1.545898.628906s.879883.734375,1.18457,1.291016.457031,1.28125.457031,2.171875v8.109375h-2.321289v-1.669922h-.095703c-.227539.455078-.633789.892578-1.21582,1.3125-.583984.417969-1.380859.626953-2.393555.626953Zm.516602-1.908203c.662109,0,1.226562-.128906,1.693359-.388672s.823242-.601562,1.070312-1.021484c.246094-.421875.369141-.873047.369141-1.355469v-1.574219c-.111328.111328-.355469.208984-.731445.292969-.375977.085938-.774414.15625-1.192383.214844-.418945.058594-.757812.105469-1.017578.142578-.689453.091797-1.279297.273438-1.769531.544922-.490234.273438-.735352.728516-.735352,1.363281,0,.589844.217773,1.033203.651367,1.332031.435547.300781.989258.449219,1.662109.449219Z" fill="#233212"></path>
      <path d="m571.080541,206.131974l-2.154297.380859c-.137695-.408203-.393555-.783203-.767578-1.125s-.931641-.511719-1.672852-.511719c-.673828,0-1.236328.148438-1.689453.449219-.453125.298828-.677734.683594-.671875,1.15625-.005859.412109.143555.742188.449219.990234.304688.246094.792969.449219,1.466797.607422l1.939453.445312c2.226562.513672,3.339844,1.617188,3.339844,3.306641,0,.738281-.210938,1.388672-.632812,1.957031-.421875.566406-1.006836,1.011719-1.756836,1.335938-.75.322266-1.618164.484375-2.604492.484375-1.37207,0-2.488281-.292969-3.34668-.878906s-1.388672-1.417969-1.589844-2.5l2.297852-.349609c.285156,1.208984,1.160156,1.8125,2.623047,1.8125.779297,0,1.402344-.164062,1.869141-.488281.46582-.326172.699219-.726562.699219-1.197266,0-.779297-.575195-1.296875-1.724609-1.550781l-2.068359-.453125c-1.144531-.253906-1.987305-.667969-2.527344-1.240234-.541016-.572266-.811523-1.291016-.811523-2.154297,0-.720703.202148-1.353516.604492-1.896484s.958984-.964844,1.669922-1.267578c.709961-.302734,1.523438-.453125,2.44043-.453125,1.319336,0,2.358398.285156,3.116211.857422.757812.574219,1.259766,1.333984,1.50293,2.283203Z" fill="#233212"></path>
      <path d="m580.048315,215.362442v-16.283203h2.376953v6.050781h.143555c.143555-.253906.342773-.548828.600586-.882812.256836-.333984.617188-.626953,1.081055-.878906s1.071289-.376953,1.825195-.376953c.985352,0,1.863281.248047,2.634766.746094.771484.5,1.379883,1.216797,1.824219,2.15625.445312.9375.667969,2.066406.667969,3.386719,0,1.314453-.21875,2.443359-.65918,3.390625-.44043.945312-1.043945,1.669922-1.813477,2.173828-.767578.503906-1.644531.755859-2.630859.755859-.742188,0-1.34668-.125-1.8125-.373047-.466797-.25-.833984-.541016-1.101562-.875s-.472656-.630859-.616211-.890625h-.198242v1.900391h-2.322266Zm2.330078-6.107422c0,1.283203.275391,2.324219.826172,3.121094.551758.798828,1.338867,1.197266,2.361328,1.197266.710938,0,1.305664-.189453,1.785156-.568359.480469-.378906.841797-.894531,1.085938-1.546875.243164-.652344.365234-1.386719.365234-2.203125,0-.810547-.121094-1.535156-.361328-2.173828-.242188-.638672-.600586-1.142578-1.078125-1.513672-.476562-.371094-1.076172-.556641-1.796875-.556641-1.039062,0-1.830078.388672-2.373047,1.164062-.542969.777344-.814453,1.804688-.814453,3.080078Z" fill="#233212"></path>
      <path d="m599.130346,215.608536c-1.198242,0-2.232422-.259766-3.101562-.779297s-1.538086-1.25-2.007812-2.189453c-.46875-.941406-.703125-2.042969-.703125-3.304688,0-1.25.234375-2.353516.703125-3.306641.469727-.955078,1.126953-1.699219,1.972656-2.234375s1.834961-.802734,2.96875-.802734c.922852,0,1.795898.205078,2.620117.615234.824219.412109,1.495117,1.066406,2.011719,1.964844s.774414,2.083984.774414,3.556641v.84375h-8.681641c.032227,1.175781.363281,2.082031.994141,2.71875s1.455078.953125,2.472656.953125c.677734,0,1.263672-.144531,1.756836-.435547.493164-.292969.845703-.726562,1.057617-1.304688l2.25.40625c-.270508.990234-.853516,1.789062-1.749023,2.392578s-2.008789.90625-3.338867.90625Zm-3.435547-7.417969h6.344727c-.004883-.933594-.286133-1.705078-.842773-2.318359-.556641-.611328-1.295898-.917969-2.217773-.917969-.641602,0-1.202148.150391-1.681641.449219-.479492.300781-.858398.695312-1.137695,1.185547-.277344.490234-.432617,1.023438-.464844,1.601562Z" fill="#233212"></path>
      <path d="m612.27976,215.608536c-1.198242,0-2.231445-.259766-3.100586-.779297s-1.539062-1.25-2.007812-2.189453c-.46875-.941406-.703125-2.042969-.703125-3.304688,0-1.25.234375-2.353516.703125-3.306641.46875-.955078,1.126953-1.699219,1.97168-2.234375.845703-.535156,1.834961-.802734,2.969727-.802734.921875,0,1.794922.205078,2.619141.615234.824219.412109,1.495117,1.066406,2.011719,1.964844.517578.898438.775391,2.083984.775391,3.556641v.84375h-8.681641c.03125,1.175781.363281,2.082031.994141,2.71875s1.455078.953125,2.472656.953125c.677734,0,1.263672-.144531,1.755859-.435547.494141-.292969.845703-.726562,1.058594-1.304688l2.25.40625c-.271484.990234-.853516,1.789062-1.75,2.392578-.895508.603516-2.008789.90625-3.338867.90625Zm-3.43457-7.417969h6.34375c-.004883-.933594-.285156-1.705078-.841797-2.318359-.556641-.611328-1.296875-.917969-2.21875-.917969-.640625,0-1.201172.150391-1.681641.449219-.479492.300781-.858398.695312-1.136719,1.185547s-.433594,1.023438-.464844,1.601562Z" fill="#233212"></path>
      <path d="m622.544409,208.110489v7.251953h-2.376953v-12.212891h2.28125v1.988281h.150391c.28125-.646484.722656-1.166016,1.324219-1.558594s1.361328-.587891,2.277344-.587891c1.251953,0,2.257812.388672,3.017578,1.167969.760742.779297,1.140625,1.923828,1.140625,3.435547v7.767578h-2.376953v-7.482422c0-.884766-.230469-1.578125-.691406-2.078125-.460938-.501953-1.094727-.751953-1.900391-.751953-.826172,0-1.507812.265625-2.042969.798828s-.802734,1.287109-.802734,2.261719Z" fill="#233212"></path>
      <path d="m648.62058,206.131974l-2.154297.380859c-.137695-.408203-.392578-.783203-.767578-1.125-.373047-.341797-.931641-.511719-1.672852-.511719-.672852,0-1.236328.148438-1.689453.449219-.453125.298828-.676758.683594-.671875,1.15625-.004883.412109.143555.742188.449219.990234.304688.246094.793945.449219,1.466797.607422l1.94043.445312c2.225586.513672,3.338867,1.617188,3.338867,3.306641,0,.738281-.210938,1.388672-.631836,1.957031-.421875.566406-1.007812,1.011719-1.757812,1.335938-.75.322266-1.617188.484375-2.603516.484375-1.373047,0-2.488281-.292969-3.347656-.878906-.857422-.585938-1.388672-1.417969-1.589844-2.5l2.297852-.349609c.286133,1.208984,1.161133,1.8125,2.624023,1.8125.779297,0,1.402344-.164062,1.868164-.488281.46582-.326172.700195-.726562.700195-1.197266,0-.779297-.576172-1.296875-1.725586-1.550781l-2.067383-.453125c-1.144531-.253906-1.988281-.667969-2.52832-1.240234s-.811523-1.291016-.811523-2.154297c0-.720703.202148-1.353516.605469-1.896484.402344-.542969.958984-.964844,1.668945-1.267578s1.524414-.453125,2.44043-.453125c1.320312,0,2.359375.285156,3.117188.857422.757812.574219,1.258789,1.333984,1.501953,2.283203Z" fill="#233212"></path>
      <path d="m659.202612,210.297989v-7.148438h2.384766v12.212891h-2.335938v-2.115234h-.126953c-.28125.652344-.730469,1.193359-1.347656,1.625-.619141.433594-1.384766.648438-2.302734.648438-1.171875,0-2.132812-.388672-2.881836-1.164062-.75-.777344-1.125-1.923828-1.125-3.439453v-7.767578h2.37793v7.482422c0,.832031.230469,1.494141.691406,1.986328.460938.494141,1.058594.740234,1.796875.740234.445312,0,.888672-.111328,1.332031-.333984.441406-.222656.810547-.560547,1.103516-1.013672.294922-.453125.439453-1.023438.433594-1.712891Z" fill="#233212"></path>
      <path d="m673.927221,206.131974l-2.154297.380859c-.136719-.408203-.392578-.783203-.767578-1.125-.373047-.341797-.931641-.511719-1.673828-.511719-.671875,0-1.236328.148438-1.689453.449219-.453125.298828-.675781.683594-.671875,1.15625-.003906.412109.144531.742188.449219.990234.304688.246094.794922.449219,1.466797.607422l1.941406.445312c2.226562.513672,3.337891,1.617188,3.337891,3.306641,0,.738281-.208984,1.388672-.630859,1.957031-.421875.566406-1.007812,1.011719-1.757812,1.335938-.75.322266-1.617188.484375-2.603516.484375-1.373047,0-2.488281-.292969-3.347656-.878906-.857422-.585938-1.388672-1.417969-1.589844-2.5l2.298828-.349609c.285156,1.208984,1.160156,1.8125,2.623047,1.8125.779297,0,1.402344-.164062,1.867188-.488281.466797-.326172.701172-.726562.701172-1.197266,0-.779297-.576172-1.296875-1.726562-1.550781l-2.066406-.453125c-1.144531-.253906-1.988281-.667969-2.527344-1.240234-.541016-.572266-.8125-1.291016-.8125-2.154297,0-.720703.201172-1.353516.605469-1.896484.402344-.542969.958984-.964844,1.669922-1.267578.708984-.302734,1.523438-.453125,2.439453-.453125,1.320312,0,2.359375.285156,3.117188.857422.757812.574219,1.257812,1.333984,1.501953,2.283203Z" fill="#233212"></path>
      <path d="m676.772924,219.940567v-16.791016h2.322266v1.980469h.199219c.142578-.253906.34375-.548828.599609-.882812.257812-.333984.617188-.626953,1.082031-.878906.462891-.251953,1.072266-.376953,1.824219-.376953.986328,0,1.865234.248047,2.634766.746094.771484.5,1.380859,1.216797,1.826172,2.15625.445312.9375.667969,2.066406.667969,3.386719,0,1.314453-.220703,2.443359-.660156,3.390625-.441406.945312-1.044922,1.669922-1.8125,2.173828-.769531.503906-1.646484.755859-2.632812.755859-.742188,0-1.345703-.125-1.8125-.373047-.466797-.25-.833984-.541016-1.101562-.875s-.472656-.630859-.615234-.890625h-.142578v6.478516h-2.378906Zm2.330078-10.685547c0,1.283203.275391,2.324219.828125,3.121094.550781.798828,1.337891,1.197266,2.359375,1.197266.710938,0,1.306641-.189453,1.785156-.568359.480469-.378906.841797-.894531,1.085938-1.546875s.365234-1.386719.365234-2.203125c0-.810547-.121094-1.535156-.361328-2.173828s-.599609-1.142578-1.078125-1.513672c-.476562-.371094-1.074219-.556641-1.796875-.556641-1.037109,0-1.828125.388672-2.373047,1.164062-.542969.777344-.814453,1.804688-.814453,3.080078Z" fill="#233212"></path>
      <path d="m695.854955,215.608536c-1.199219,0-2.232422-.259766-3.101562-.779297s-1.537109-1.25-2.007812-2.189453c-.46875-.941406-.703125-2.042969-.703125-3.304688,0-1.25.234375-2.353516.703125-3.306641.470703-.955078,1.126953-1.699219,1.972656-2.234375s1.833984-.802734,2.96875-.802734c.921875,0,1.796875.205078,2.621094.615234.822266.412109,1.494141,1.066406,2.009766,1.964844.517578.898438.775391,2.083984.775391,3.556641v.84375h-8.681641c.03125,1.175781.363281,2.082031.994141,2.71875s1.455078.953125,2.472656.953125c.677734,0,1.263672-.144531,1.757812-.435547.492188-.292969.84375-.726562,1.056641-1.304688l2.25.40625c-.269531.990234-.853516,1.789062-1.75,2.392578-.894531.603516-2.007812.90625-3.337891.90625Zm-3.435547-7.417969h6.345703c-.005859-.933594-.287109-1.705078-.84375-2.318359-.556641-.611328-1.294922-.917969-2.21875-.917969-.640625,0-1.201172.150391-1.681641.449219-.478516.300781-.857422.695312-1.136719,1.185547-.277344.490234-.433594,1.023438-.464844,1.601562Z" fill="#233212"></path>
      <path d="m706.118627,208.110489v7.251953h-2.376953v-12.212891h2.28125v1.988281h.152344c.279297-.646484.720703-1.166016,1.322266-1.558594s1.361328-.587891,2.279297-.587891c1.25,0,2.255859.388672,3.015625,1.167969.761719.779297,1.142578,1.923828,1.142578,3.435547v7.767578h-2.378906v-7.482422c0-.884766-.230469-1.578125-.691406-2.078125-.460938-.501953-1.09375-.751953-1.900391-.751953-.826172,0-1.507812.265625-2.042969.798828s-.802734,1.287109-.802734,2.261719Z" fill="#233212"></path>
      <path d="m721.685034,215.600724c-.986328,0-1.863281-.251953-2.630859-.755859-.769531-.503906-1.373047-1.228516-1.8125-2.173828-.441406-.947266-.660156-2.076172-.660156-3.390625,0-1.320312.220703-2.449219.664062-3.386719.441406-.939453,1.050781-1.65625,1.824219-2.15625.773438-.498047,1.650391-.746094,2.630859-.746094.757812,0,1.369141.125,1.833984.376953.462891.251953.822266.544922,1.080078.878906s.457031.628906.599609.882812h.144531v-6.050781h2.376953v16.283203h-2.322266v-1.900391h-.199219c-.142578.259766-.347656.556641-.615234.890625s-.634766.625-1.101562.875c-.466797.248047-1.070312.373047-1.8125.373047Zm.525391-2.027344c1.027344,0,1.816406-.398438,2.365234-1.197266.548828-.796875.822266-1.837891.822266-3.121094,0-1.275391-.271484-2.302734-.814453-3.080078-.542969-.775391-1.333984-1.164062-2.373047-1.164062-.716797,0-1.3125.185547-1.789062.556641s-.835938.875-1.078125,1.513672c-.240234.638672-.361328,1.363281-.361328,2.173828,0,.816406.121094,1.550781.365234,2.203125s.605469,1.167969,1.085938,1.546875,1.072266.568359,1.777344.568359Z" fill="#233212"></path>
      <path d="m736.386205,215.608536c-1.199219,0-2.232422-.259766-3.101562-.779297s-1.537109-1.25-2.007812-2.189453c-.46875-.941406-.703125-2.042969-.703125-3.304688,0-1.25.234375-2.353516.703125-3.306641.470703-.955078,1.126953-1.699219,1.972656-2.234375s1.833984-.802734,2.96875-.802734c.921875,0,1.796875.205078,2.621094.615234.822266.412109,1.494141,1.066406,2.009766,1.964844.517578.898438.775391,2.083984.775391,3.556641v.84375h-8.681641c.03125,1.175781.363281,2.082031.994141,2.71875s1.455078.953125,2.472656.953125c.677734,0,1.263672-.144531,1.757812-.435547.492188-.292969.84375-.726562,1.056641-1.304688l2.25.40625c-.269531.990234-.853516,1.789062-1.75,2.392578-.894531.603516-2.007812.90625-3.337891.90625Zm-3.435547-7.417969h6.345703c-.005859-.933594-.287109-1.705078-.84375-2.318359-.556641-.611328-1.294922-.917969-2.21875-.917969-.640625,0-1.201172.150391-1.681641.449219-.478516.300781-.857422.695312-1.136719,1.185547-.277344.490234-.433594,1.023438-.464844,1.601562Z" fill="#233212"></path>
      <path d="m748.84519,215.600724c-.986328,0-1.863281-.251953-2.632812-.755859-.767578-.503906-1.373047-1.228516-1.8125-2.173828-.439453-.947266-.660156-2.076172-.660156-3.390625,0-1.320312.220703-2.449219.664062-3.386719.443359-.939453,1.050781-1.65625,1.824219-2.15625.775391-.498047,1.652344-.746094,2.632812-.746094.757812,0,1.369141.125,1.832031.376953s.824219.544922,1.082031.878906c.255859.333984.457031.628906.599609.882812h.142578v-6.050781h2.376953v16.283203h-2.320312v-1.900391h-.199219c-.142578.259766-.349609.556641-.617188.890625s-.634766.625-1.099609.875c-.466797.248047-1.072266.373047-1.8125.373047Zm.523438-2.027344c1.029297,0,1.816406-.398438,2.365234-1.197266.548828-.796875.824219-1.837891.824219-3.121094,0-1.275391-.273438-2.302734-.816406-3.080078-.542969-.775391-1.333984-1.164062-2.373047-1.164062-.714844,0-1.310547.185547-1.789062.556641-.476562.371094-.835938.875-1.076172,1.513672-.242188.638672-.361328,1.363281-.361328,2.173828,0,.816406.121094,1.550781.365234,2.203125s.605469,1.167969,1.083984,1.546875c.480469.378906,1.072266.568359,1.777344.568359Z" fill="#233212"></path>
    </g>
  </g>
</svg>
