<?xml version="1.0" encoding="UTF-8"?>
<svg id="Layer_1" data-name="Layer 1" xmlns="http://www.w3.org/2000/svg" viewBox="0 0 96.81 90.21">
  <defs>
    <style>
      .cls-1 {
        fill: #1b4265;
      }

      .cls-2 {
        fill: #e29f63;
      }

      .cls-3 {
        fill: #e98a33;
      }

      .cls-4 {
        fill: #ec8a33;
      }

      .cls-5 {
        fill: #1a4165;
      }
    </style>
  </defs>
  <path class="cls-5" d="M7.15,39.45c.04-.07.67-.22.86-.17.65.16,5.09,4.79,5.94,5.67,1.85,1.9,4.32,5.25,6.23,6.83.91.75,2.17,1.32,2.21-.25-3.6-4.79-7.8-9.23-11.71-13.81-.49-1.13.03-2.13,1.27-1.56,4.17,4.84,10.04,8.9,14.07,13.76,1.92,2.32,2.73,4.1,2.38,7.21-.24,2.12-1.55,3.39-.21,5.66l20.03,22.01c.32.06,3.92-3.87,4.51-4.52,5.9-6.4,11.59-13.02,17.43-19.48,1.03-1.69-.3-3.28-.5-4.81-1.59-11.91,14.71-25.69,23.98-17.7s-3.15,26.36-14.77,25.83c-2.16-.1-3.37-1.53-5.52-.14-7.13,7.27-13.47,15.3-20.46,22.69-4.01,4.24-4.26,4.97-8.54.57-5.87-6.04-11.1-12.77-16.89-18.88-.74-.78-2.89-3.14-3.76-3.34-1.87-.43-3.63.55-5.32.51-4.65-.08-8.22-5.67-10.94-8.95-2.49-3-4.84-6.15-7.24-9.23-.4-.79-.11-1.52.83-1.42,1.16.13,10.67,11.06,12.37,12.63.76.61,2.14.73,1.99-.55l-11.8-13.78c-.44-.65.12-1.71.85-1.71.98,0,11.18,11.58,12.77,13.07,3.06.77,1.11-1.79.15-2.99-2.75-3.41-7.6-7.75-9.78-11.23-.29-.46-.69-1.49-.42-1.95Z"/>
  <path class="cls-4" d="M19.91,38c1.36-6.93,7.53-14.11,13.63-17.46,14.04-7.69,32.15-3.35,40.29,10.56.59,1,2.6,4.56,2.2,5.47-.17.38-3.01,2.76-3.27,2.56-5.28-16.93-25.43-23.58-39.87-13-4.73,3.47-6.24,6.81-8.72,11.86-.7,2.67-1.45,4.81-3.81,1.77-.42-.54-.83-1.09-.45-1.77Z"/>
  <path class="cls-1" d="M63.66,18.14l-4.23-1.73c1.69-12.93-17.18-17.36-21.56-5.44-.53,1.44-.54,4.8-.77,5.19-.36.59-3.4,1.34-4.12,1.98v-5.53c0-.83,1.44-4.26,1.94-5.15,5.57-9.96,21.48-9.99,26.9.18.5.94,1.84,4.35,1.84,5.25v5.25Z"/>
  <path class="cls-2" d="M24.17,38l-1,4.26c-1.02-.56-3.57-2.41-3.58-3.56,0-.41.29-.6.31-.7-.36,1.07,1.58,2.85,2.42,2.83.78-.01,1.45-2.03,1.84-2.83Z"/>
  <path class="cls-3" d="M64.74,36.49c-3.32-6.3-11.36-6.98-16.53-2.49-2.64-2.41-6.08-3.34-9.63-2.74-2.47.42-5.43,2.86-6.61,5.03-5.56,10.18,6.16,21.98,13.82,27.36,1.09.77,1.65,1.59,3.17,1.25.66-.15,6.03-4.54,6.89-5.33,5.91-5.39,13.29-14.74,8.89-23.08ZM48.42,60.11c-5.59-4.12-14.15-11.5-13.46-19.14.23-2.56,2.15-5.01,4.77-5.45,1.62-.28,3.07-.1,4.43.83,1.25.86,2.67,3.78,3.76,3.93,1.83.26,2.75-2.45,4.1-3.56,2.52-2.07,6.2-1.7,8.23.86,5.81,7.32-6.34,18.51-11.82,22.53Z"/>
</svg>